<svg xmlns="http://www.w3.org/2000/svg" style="display: none;">
  <!-- menu -->
  <symbol id="menu" viewBox="0 0 24 24">
    <rect y="11" width="24" height="2" rx="1"/>
    <rect y="4" width="24" height="2" rx="1"/><rect y="18" width="24" height="2" rx="1"/>
  </symbol>
  <!-- goals -->
  <symbol id="goals" viewBox="0 0 24 24">
    <path d="M21,5.5c0,.276-.224,.5-.5,.5h-3c-.276,0-.5-.224-.5-.5s.224-.5,.5-.5h3c.276,0,.5,.224,.5,.5Zm-.5,2.5h-3c-.276,0-.5,.224-.5,.5s.224,.5,.5,.5h3c.276,0,.5-.224,.5-.5s-.224-.5-.5-.5Zm0,3h-3c-.276,0-.5,.224-.5,.5s.224,.5,.5,.5h3c.276,0,.5-.224,.5-.5s-.224-.5-.5-.5Zm0,3h-3c-.276,0-.5,.224-.5,.5s.224,.5,.5,.5h3c.276,0,.5-.224,.5-.5s-.224-.5-.5-.5Zm-5.5-4c0,1.649-.669,3.145-1.75,4.231-.003,.003-.004,.008-.008,.011s-.008,.004-.011,.008c-1.086,1.081-2.581,1.75-4.231,1.75-3.309,0-6-2.691-6-6s2.691-6,6-6,6,2.691,6,6Zm-5.5-4.949v4.535c0,.131,.054,.26,.146,.354l3.207,3.207c.705-.862,1.146-1.948,1.146-3.146,0-2.586-1.98-4.694-4.5-4.949Zm-.5,9.949c1.198,0,2.284-.441,3.146-1.146l-3.207-3.207c-.283-.283-.439-.66-.439-1.061V5.051c-2.52,.255-4.5,2.364-4.5,4.949,0,2.757,2.243,5,5,5ZM24,5.5V14.5c0,2.481-2.019,4.5-4.5,4.5h-7v3h5c.276,0,.5,.224,.5,.5s-.224,.5-.5,.5H6.5c-.276,0-.5-.224-.5-.5s.224-.5,.5-.5h5v-3H4.5c-2.481,0-4.5-2.019-4.5-4.5V5.5C0,3.019,2.019,1,4.5,1h15c2.481,0,4.5,2.019,4.5,4.5Zm-1,0c0-1.93-1.57-3.5-3.5-3.5H4.5c-1.93,0-3.5,1.57-3.5,3.5V14.5c0,1.93,1.57,3.5,3.5,3.5h15c1.93,0,3.5-1.57,3.5-3.5V5.5Z"/>
  </symbol>
  <!-- habits -->
  <symbol id="habits" viewBox="0 0 24 24">
    <path d="M19.5,2h-1.5V.5c0-.276-.224-.5-.5-.5s-.5,.224-.5,.5v1.5H7V.5c0-.276-.224-.5-.5-.5s-.5,.224-.5,.5v1.5h-1.5C2.019,2,0,4.019,0,6.5v13c0,2.481,2.019,4.5,4.5,4.5h15c2.481,0,4.5-2.019,4.5-4.5V6.5c0-2.481-2.019-4.5-4.5-4.5ZM4.5,3h15c1.93,0,3.5,1.57,3.5,3.5v1.5H1v-1.5c0-1.93,1.57-3.5,3.5-3.5Zm15,20H4.5c-1.93,0-3.5-1.57-3.5-3.5V9H23v10.5c0,1.93-1.57,3.5-3.5,3.5Zm-.5-9.5c0,.276-.224,.5-.5,.5H5.5c-.276,0-.5-.224-.5-.5s.224-.5,.5-.5h13c.276,0,.5,.224,.5,.5Zm-7,5c0,.276-.224,.5-.5,.5H5.5c-.276,0-.5-.224-.5-.5s.224-.5,.5-.5h6c.276,0,.5,.224,.5,.5Z"/>
  </symbol>
  <!-- planning -->
  <symbol id="planning" viewBox="0 0 24 24">
    <path d="m21.5,0c-1.379,0-2.5,1.121-2.5,2.5v11.55c0,1.068.416,2.073,1.172,2.829l.975.975c.098.098.226.146.354.146s.256-.049.354-.146l.975-.975c.756-.756,1.172-1.761,1.172-2.829V2.5c0-1.379-1.121-2.5-2.5-2.5Zm1.5,14.05c0,.802-.313,1.556-.879,2.122l-.621.621-.621-.621c-.566-.566-.879-1.32-.879-2.122V2.5c0-.827.673-1.5,1.5-1.5s1.5.673,1.5,1.5v11.55ZM3.146,5.21c-.195-.195-.195-.512,0-.707s.512-.195.707,0l1.347,1.346c.098.098.227.151.364.151s.268-.054.365-.151l2.525-2.525c.195-.195.512-.195.707,0s.195.512,0,.707l-2.525,2.525c-.287.287-.667.444-1.072.444h0c-.404,0-.785-.158-1.07-.444l-1.347-1.346Zm3.49,7.346c-.287.287-.667.444-1.072.444h0c-.404,0-.785-.158-1.07-.444l-1.347-1.346c-.195-.195-.195-.512,0-.707s.512-.195.707,0l1.347,1.346c.098.098.227.151.364.151s.268-.054.365-.151l2.525-2.525c.195-.195.512-.195.707,0s.195.512,0,.707l-2.525,2.525Zm11.363,6.444h-1V4c0-2.206-1.794-4-4-4H4C1.794,0,0,1.794,0,4v17c0,1.654,1.346,3,3,3h14c1.654,0,3-1.346,3-3,0-1.103-.897-2-2-2Zm-15,4c-1.103,0-2-.897-2-2V4c0-1.654,1.346-3,3-3h9c1.654,0,3,1.346,3,3v15H7c-1.103,0-2,.897-2,2s-.897,2-2,2Zm14,0H5.234c.476-.531.766-1.232.766-2,0-.552.448-1,1-1h11c.552,0,1,.448,1,1,0,1.103-.897,2-2,2Z"/>
  </symbol>
  <!-- music -->
  <symbol id="music" viewBox="0 0 24 24">
    <path d="m18,7.5v9c0,.276-.224.5-.5.5s-.5-.224-.5-.5V7.5c0-.276.224-.5.5-.5s.5.224.5.5ZM13.5,0c-.276,0-.5.224-.5.5v23c0,.276.224.5.5.5s.5-.224.5-.5V.5c0-.276-.224-.5-.5-.5Zm8,4c-.276,0-.5.224-.5.5v15c0,.276.224.5.5.5s.5-.224.5-.5V4.5c0-.276-.224-.5-.5-.5Zm-12,0c-.276,0-.5.224-.5.5v15c0,.276.224.5.5.5s.5-.224.5-.5V4.5c0-.276-.224-.5-.5-.5Zm-4,3c-.276,0-.5.224-.5.5v9c0,.276.224.5.5.5s.5-.224.5-.5V7.5c0-.276-.224-.5-.5-.5Zm-4,2c-.276,0-.5.224-.5.5v5c0,.276.224.5.5.5s.5-.224.5-.5v-5c0-.276-.224-.5-.5-.5Z"/>
  </symbol>
  <!-- facebook -->
  <symbol id="facebook" viewBox="0 0 24 24">
  	<path d="M24,12.073c0,5.989-4.394,10.954-10.13,11.855v-8.363h2.789l0.531-3.46H13.87V9.86c0-0.947,0.464-1.869,1.95-1.869h1.509   V5.045c0,0-1.37-0.234-2.679-0.234c-2.734,0-4.52,1.657-4.52,4.656v2.637H7.091v3.46h3.039v8.363C4.395,23.025,0,18.061,0,12.073   c0-6.627,5.373-12,12-12S24,5.445,24,12.073z"/>
  </symbol>
  <!-- instagram -->
  <symbol id="instagram" viewBox="0 0 24 24">
    <path d="M12,2.162c3.204,0,3.584,0.012,4.849,0.07c1.308,0.06,2.655,0.358,3.608,1.311c0.962,0.962,1.251,2.296,1.311,3.608   c0.058,1.265,0.07,1.645,0.07,4.849c0,3.204-0.012,3.584-0.07,4.849c-0.059,1.301-0.364,2.661-1.311,3.608   c-0.962,0.962-2.295,1.251-3.608,1.311c-1.265,0.058-1.645,0.07-4.849,0.07s-3.584-0.012-4.849-0.07   c-1.291-0.059-2.669-0.371-3.608-1.311c-0.957-0.957-1.251-2.304-1.311-3.608c-0.058-1.265-0.07-1.645-0.07-4.849   c0-3.204,0.012-3.584,0.07-4.849c0.059-1.296,0.367-2.664,1.311-3.608c0.96-0.96,2.299-1.251,3.608-1.311   C8.416,2.174,8.796,2.162,12,2.162 M12,0C8.741,0,8.332,0.014,7.052,0.072C5.197,0.157,3.355,0.673,2.014,2.014   C0.668,3.36,0.157,5.198,0.072,7.052C0.014,8.332,0,8.741,0,12c0,3.259,0.014,3.668,0.072,4.948c0.085,1.853,0.603,3.7,1.942,5.038   c1.345,1.345,3.186,1.857,5.038,1.942C8.332,23.986,8.741,24,12,24c3.259,0,3.668-0.014,4.948-0.072   c1.854-0.085,3.698-0.602,5.038-1.942c1.347-1.347,1.857-3.184,1.942-5.038C23.986,15.668,24,15.259,24,12   c0-3.259-0.014-3.668-0.072-4.948c-0.085-1.855-0.602-3.698-1.942-5.038c-1.343-1.343-3.189-1.858-5.038-1.942   C15.668,0.014,15.259,0,12,0z"/>
    <path d="M12,5.838c-3.403,0-6.162,2.759-6.162,6.162c0,3.403,2.759,6.162,6.162,6.162s6.162-2.759,6.162-6.162   C18.162,8.597,15.403,5.838,12,5.838z M12,16c-2.209,0-4-1.791-4-4s1.791-4,4-4s4,1.791,4,4S14.209,16,12,16z"/>
    <circle cx="18.406" cy="5.594" r="1.44"/>
  </symbol>
  <!-- twitter -->
  <symbol id="twitter" viewBox="0 0 24 24">
    <polygon points="6.861 6.159 15.737 17.764 17.097 17.764 8.322 6.159 6.861 6.159"/>
    <path d="m0,0v24h24V0H0Zm15.063,19.232l-3.87-5.055-4.422,5.055h-2.458l5.733-6.554-6.046-7.91h5.062l3.494,4.621,4.043-4.621h2.455l-5.361,6.126,6.307,8.337h-4.937Z"/>
  </symbol>
</svg>
