<svg xmlns="http://www.w3.org/2000/svg" style="display: none;">
  <!-- Home -->
  <symbol id="home" viewBox="0 0 24 24">
    <path d="M19,24H5c-2.757,0-5-2.243-5-5V9.724c0-1.665,.824-3.215,2.204-4.145L9.203,.855c1.699-1.146,3.895-1.146,5.594,0l7,4.724c1.379,.93,2.203,2.479,2.203,4.145v9.276c0,2.757-2.243,5-5,5Z" />
  </symbol>
  <!-- goals -->
  <symbol id="goals" viewBox="0 0 24 24">
    <path d="M2,20.976v-21H0v21a3,3,0,0,0,3,3H24v-2H3A1,1,0,0,1,2,20.976Z"/>
    <path d="M22.5,3.976H17l2.793,2.793L15.5,11.062l-2-2L6.281,16.281,7.7,17.7l5.805-5.8,2,2,5.707-5.707L24,10.976v-5.5A1.5,1.5,0,0,0,22.5,3.976Z"/>
  </symbol>
  <!-- To-do list -->
  <symbol id="to-do-list" viewBox="0 0 24 24">
    <path d="m17,0H7C4.243,0,2,2.243,2,5v14c0,2.757,2.243,5,5,5h10c2.757,0,5-2.243,5-5V5c0-2.757-2.243-5-5-5ZM7.5,4.5c.828,0,1.5.672,1.5,1.5s-.672,1.5-1.5,1.5-1.5-.672-1.5-1.5.672-1.5,1.5-1.5Zm0,15c-.828,0-1.5-.672-1.5-1.5s.672-1.5,1.5-1.5,1.5.672,1.5,1.5-.672,1.5-1.5,1.5Zm1.365-5.979c-.319.319-.741.479-1.165.479-.427,0-.855-.162-1.182-.487l-.681-.655c-.398-.382-.411-1.016-.028-1.414.383-.399,1.017-.41,1.414-.028l.472.454,1.866-1.815c.396-.385,1.029-.377,1.414.02.385.396.376,1.029-.02,1.414l-2.091,2.034Zm8.135,5.479h-5c-.552,0-1-.448-1-1s.448-1,1-1h5c.552,0,1,.448,1,1s-.448,1-1,1Zm0-6h-3c-.552,0-1-.448-1-1s.448-1,1-1h3c.552,0,1,.448,1,1s-.448,1-1,1Zm0-6h-5c-.552,0-1-.448-1-1s.448-1,1-1h5c.552,0,1,.448,1,1s-.448,1-1,1Z" />
  </symbol>
    <!-- habits -->
  <symbol id="habits" viewBox="0 0 24 24">
    <path d="M13.27,19.48c-.813,.813-1.27,1.915-1.27,3.065v1.455h1.455c1.15,0,2.252-.457,3.065-1.27l6.807-6.807c.897-.897,.897-2.353,0-3.25-.897-.897-2.353-.897-3.25,0l-6.807,6.807Zm10.73-11.48H0v-1C0,4.243,2.243,2,5,2h1V1c0-.552,.447-1,1-1s1,.448,1,1v1h8V1c0-.552,.447-1,1-1s1,.448,1,1v1h1c2.757,0,5,2.243,5,5v1ZM0,10H21.357c-.839,.101-1.667,.482-2.392,1.207l-7.207,7.207c-1.134,1.133-1.758,2.64-1.758,4.243v1.343H5c-2.761,0-5-2.239-5-5V10Z" />
  </symbol>
  <!-- finance -->
  <symbol id="finance" viewBox="0 0 24 24">
    <path d="M12,0C5.383,0,0,5.383,0,12c.603,15.898,23.4,15.894,24,0,0-6.617-5.383-12-12-12Zm1,17v1c-.005,1.308-1.995,1.307-2,0v-1h-.268c-1.067,0-2.063-.574-2.598-1.499-.277-.479-.113-1.09,.364-1.366,.479-.279,1.091-.113,1.366,.364,.179,.31,.511,.501,.867,.501h2.268c.997,.065,1.443-1.55,.356-1.76l-3.041-.507c-3.502-.649-2.748-5.753,.685-5.733v-1c.006-1.308,1.995-1.307,2,0v1h.268c1.067,0,2.063,.575,2.598,1.5,.277,.478,.113,1.089-.364,1.366-.48,.277-1.091,.113-1.366-.365-.179-.309-.511-.5-.867-.5h-2.268c-.997-.065-1.442,1.55-.356,1.76l3.041,.507c3.502,.649,2.748,5.753-.685,5.733Z"/>
  </symbol>
  <!-- daily -->
  <symbol id="daily" viewBox="0 0 24 24">
    <path d="M22.766,4.566A1.994,1.994,0,0,0,20.586,5L18,7.586,13.414,3a2,2,0,0,0-2.828,0L6,7.586,3.414,5A2,2,0,0,0,0,6.414V17a5.006,5.006,0,0,0,5,5H19a5.006,5.006,0,0,0,5-5V6.414A2,2,0,0,0,22.766,4.566Z"/>
  </symbol>
  <!-- arrow right -->
  <symbol id="arrow-right" viewBox="0 0 24 24">
    <path d="M9,17.879V6.707A1,1,0,0,1,10.707,6l5.586,5.586a1,1,0,0,1,0,1.414l-5.586,5.586A1,1,0,0,1,9,17.879Z"/>
  </symbol>
    <!-- double arrow right -->
  <symbol id="double-arrow-right" viewBox="0 0 24 24">
      <path d="M13.1,19.5a1.5,1.5,0,0,1-1.061-2.561l4.586-4.585a.5.5,0,0,0,0-.708L12.043,7.061a1.5,1.5,0,0,1,2.121-2.122L18.75,9.525a3.505,3.505,0,0,1,0,4.95l-4.586,4.586A1.5,1.5,0,0,1,13.1,19.5Z"/><path d="M6.1,19.5a1.5,1.5,0,0,1-1.061-2.561L9.982,12,5.043,7.061A1.5,1.5,0,0,1,7.164,4.939l6,6a1.5,1.5,0,0,1,0,2.122l-6,6A1.5,1.5,0,0,1,6.1,19.5Z"/>
  </symbol>
</svg>
